solid Created by Gmsh
facet normal 0 0 1
  outer loop
    vertex 0.1915111107797439 -0.1606969024216356 -0.05000000000000001
    vertex 0.1249999999999992 -0.2165063509461101 -0.05000000000000001
    vertex 0.1606969024216341 -0.1915111107797451 -0.05000000000000001
  endloop
endfacet
facet normal 0 0 1
  outer loop
    vertex 0.25 -6.142273873338862e-17 -0.05000000000000001
    vertex 0.2349231551964767 -0.08550503583141819 -0.05000000000000001
    vertex 0.2462019382530518 -0.04341204441673369 -0.05000000000000001
  endloop
endfacet
facet normal 0 0 1
  outer loop
    vertex 0.125 0.2165063509461096 -0.05000000000000001
    vertex 0.08550503583141723 0.2349231551964771 -0.05000000000000001
    vertex 0.04341204441673259 0.246201938253052 -0.05000000000000001
  endloop
endfacet
facet normal 0 0 1
  outer loop
    vertex 0.1606969024216348 0.1915111107797445 -0.05000000000000001
    vertex 0.25 -6.142273873338862e-17 -0.05000000000000001
    vertex 0.246201938253052 0.0434120444167326 -0.05000000000000001
  endloop
endfacet
facet normal 0 0 1
  outer loop
    vertex 0.1606969024216348 0.1915111107797445 -0.05000000000000001
    vertex 0.246201938253052 0.0434120444167326 -0.05000000000000001
    vertex 0.2349231551964771 0.08550503583141719 -0.05000000000000001
  endloop
endfacet
facet normal 0 0 1
  outer loop
    vertex 0.1606969024216348 0.1915111107797445 -0.05000000000000001
    vertex 0.2349231551964771 0.08550503583141719 -0.05000000000000001
    vertex 0.2165063509461097 0.125 -0.05000000000000001
  endloop
endfacet
facet normal 0 0 1
  outer loop
    vertex 0.1606969024216348 0.1915111107797445 -0.05000000000000001
    vertex 0.2165063509461097 0.125 -0.05000000000000001
    vertex 0.1915111107797445 0.1606969024216348 -0.05000000000000001
  endloop
endfacet
facet normal 0 0 1
  outer loop
    vertex 0.1606969024216348 0.1915111107797445 -0.05000000000000001
    vertex 0.04341204441673259 0.246201938253052 -0.05000000000000001
    vertex 1.173088656243255e-17 0.25 -0.05000000000000001
  endloop
endfacet
facet normal 0 0 1
  outer loop
    vertex 0.1606969024216348 0.1915111107797445 -0.05000000000000001
    vertex 1.173088656243255e-17 0.25 -0.05000000000000001
    vertex -0.04341204441673256 0.246201938253052 -0.05000000000000001
  endloop
endfacet
facet normal 0 0 1
  outer loop
    vertex 0.1606969024216348 0.1915111107797445 -0.05000000000000001
    vertex -0.04341204441673256 0.246201938253052 -0.05000000000000001
    vertex -0.08550503583141718 0.2349231551964771 -0.05000000000000001
  endloop
endfacet
facet normal 0 0 1
  outer loop
    vertex 0.1606969024216348 0.1915111107797445 -0.05000000000000001
    vertex -0.08550503583141718 0.2349231551964771 -0.05000000000000001
    vertex -0.1249999999999999 0.2165063509461097 -0.05000000000000001
  endloop
endfacet
facet normal 0 0 1
  outer loop
    vertex 0.1606969024216348 0.1915111107797445 -0.05000000000000001
    vertex -0.1249999999999999 0.2165063509461097 -0.05000000000000001
    vertex -0.1606969024216348 0.1915111107797446 -0.05000000000000001
  endloop
endfacet
facet normal 0 0 1
  outer loop
    vertex 0.1606969024216348 0.1915111107797445 -0.05000000000000001
    vertex -0.1606969024216348 0.1915111107797446 -0.05000000000000001
    vertex -0.1915111107797444 0.160696902421635 -0.05000000000000001
  endloop
endfacet
facet normal 0 0 1
  outer loop
    vertex 0.1606969024216348 0.1915111107797445 -0.05000000000000001
    vertex -0.1915111107797444 0.160696902421635 -0.05000000000000001
    vertex -0.2165063509461096 0.1250000000000002 -0.05000000000000001
  endloop
endfacet
facet normal 0 0 1
  outer loop
    vertex 0.1606969024216348 0.1915111107797445 -0.05000000000000001
    vertex -0.2165063509461096 0.1250000000000002 -0.05000000000000001
    vertex -0.234923155196477 0.08550503583141741 -0.05000000000000001
  endloop
endfacet
facet normal 0 0 1
  outer loop
    vertex 0.1606969024216348 0.1915111107797445 -0.05000000000000001
    vertex -0.234923155196477 0.08550503583141741 -0.05000000000000001
    vertex -0.2462019382530519 0.04341204441673287 -0.05000000000000001
  endloop
endfacet
facet normal 0 0 1
  outer loop
    vertex 0.1606969024216348 0.1915111107797445 -0.05000000000000001
    vertex -0.2462019382530519 0.04341204441673287 -0.05000000000000001
    vertex -0.25 3.549108955010451e-16 -0.05000000000000001
  endloop
endfacet
facet normal 0 0 1
  outer loop
    vertex 0.1606969024216348 0.1915111107797445 -0.05000000000000001
    vertex -0.25 3.549108955010451e-16 -0.05000000000000001
    vertex -0.2462019382530521 -0.04341204441673217 -0.05000000000000001
  endloop
endfacet
facet normal 0 0 1
  outer loop
    vertex 0.1606969024216348 0.1915111107797445 -0.05000000000000001
    vertex -0.2462019382530521 -0.04341204441673217 -0.05000000000000001
    vertex -0.2349231551964772 -0.08550503583141675 -0.05000000000000001
  endloop
endfacet
facet normal 0 0 1
  outer loop
    vertex 0.1606969024216348 0.1915111107797445 -0.05000000000000001
    vertex -0.2349231551964772 -0.08550503583141675 -0.05000000000000001
    vertex -0.2165063509461099 -0.1249999999999996 -0.05000000000000001
  endloop
endfacet
facet normal 0 0 1
  outer loop
    vertex 0.1606969024216348 0.1915111107797445 -0.05000000000000001
    vertex -0.2165063509461099 -0.1249999999999996 -0.05000000000000001
    vertex -0.1915111107797449 -0.1606969024216344 -0.05000000000000001
  endloop
endfacet
facet normal 0 0 1
  outer loop
    vertex 0.1606969024216348 0.1915111107797445 -0.05000000000000001
    vertex -0.1915111107797449 -0.1606969024216344 -0.05000000000000001
    vertex -0.1606969024216352 -0.1915111107797442 -0.05000000000000001
  endloop
endfacet
facet normal 0 0 1
  outer loop
    vertex 0.1606969024216348 0.1915111107797445 -0.05000000000000001
    vertex -0.1606969024216352 -0.1915111107797442 -0.05000000000000001
    vertex -0.1250000000000005 -0.2165063509461094 -0.05000000000000001
  endloop
endfacet
facet normal 0 0 1
  outer loop
    vertex 0.1606969024216348 0.1915111107797445 -0.05000000000000001
    vertex -0.1250000000000005 -0.2165063509461094 -0.05000000000000001
    vertex -0.08550503583141776 -0.2349231551964769 -0.05000000000000001
  endloop
endfacet
facet normal 0 0 1
  outer loop
    vertex 0.1606969024216348 0.1915111107797445 -0.05000000000000001
    vertex -0.08550503583141776 -0.2349231551964769 -0.05000000000000001
    vertex -0.04341204441673323 -0.2462019382530519 -0.05000000000000001
  endloop
endfacet
facet normal 0 0 1
  outer loop
    vertex 0.1606969024216348 0.1915111107797445 -0.05000000000000001
    vertex -0.04341204441673323 -0.2462019382530519 -0.05000000000000001
    vertex -7.099140794439192e-16 -0.25 -0.05000000000000001
  endloop
endfacet
facet normal 0 0 1
  outer loop
    vertex 0.1606969024216348 0.1915111107797445 -0.05000000000000001
    vertex -7.099140794439192e-16 -0.25 -0.05000000000000001
    vertex 0.04341204441673181 -0.2462019382530521 -0.05000000000000001
  endloop
endfacet
facet normal 0 0 1
  outer loop
    vertex 0.1606969024216348 0.1915111107797445 -0.05000000000000001
    vertex 0.04341204441673181 -0.2462019382530521 -0.05000000000000001
    vertex 0.0855050358314164 -0.2349231551964774 -0.05000000000000001
  endloop
endfacet
facet normal 0 0 1
  outer loop
    vertex 0.1606969024216348 0.1915111107797445 -0.05000000000000001
    vertex 0.0855050358314164 -0.2349231551964774 -0.05000000000000001
    vertex 0.1249999999999992 -0.2165063509461101 -0.05000000000000001
  endloop
endfacet
facet normal 0 0 1
  outer loop
    vertex 0.1606969024216348 0.1915111107797445 -0.05000000000000001
    vertex 0.1915111107797439 -0.1606969024216356 -0.05000000000000001
    vertex 0.2165063509461091 -0.1250000000000009 -0.05000000000000001
  endloop
endfacet
facet normal 0 0 1
  outer loop
    vertex 0.1606969024216348 0.1915111107797445 -0.05000000000000001
    vertex 0.2165063509461091 -0.1250000000000009 -0.05000000000000001
    vertex 0.2349231551964767 -0.08550503583141819 -0.05000000000000001
  endloop
endfacet
facet normal 0 0 1
  outer loop
    vertex 0.1606969024216348 0.1915111107797445 -0.05000000000000001
    vertex 0.2349231551964767 -0.08550503583141819 -0.05000000000000001
    vertex 0.25 -6.142273873338862e-17 -0.05000000000000001
  endloop
endfacet
facet normal 0 0 1
  outer loop
    vertex 0.1606969024216348 0.1915111107797445 -0.05000000000000001
    vertex 0.1249999999999992 -0.2165063509461101 -0.05000000000000001
    vertex 0.1915111107797439 -0.1606969024216356 -0.05000000000000001
  endloop
endfacet
facet normal 0 0 1
  outer loop
    vertex 0.1606969024216348 0.1915111107797445 -0.05000000000000001
    vertex 0.125 0.2165063509461096 -0.05000000000000001
    vertex 0.04341204441673259 0.246201938253052 -0.05000000000000001
  endloop
endfacet
facet normal 0.996195 0.0871557 0
  outer loop
    vertex 0.246201938253052 0.04341204441673258 -0.05
    vertex 0.25 0 0.05
    vertex 0.25 0 -0.05
  endloop
endfacet
facet normal 0.996195 0.0871557 -0
  outer loop
    vertex 0.246201938253052 0.04341204441673258 -0.05
    vertex 0.246201938253052 0.04341204441673258 0.05
    vertex 0.25 0 0.05
  endloop
endfacet
facet normal 0.965926 0.258819 -0
  outer loop
    vertex 0.2349231551964771 0.08550503583141718 -0.05
    vertex 0.2349231551964771 0.08550503583141718 0.05
    vertex 0.246201938253052 0.04341204441673258 0.05
  endloop
endfacet
facet normal 0.965926 0.258819 0
  outer loop
    vertex 0.2349231551964771 0.08550503583141718 -0.05
    vertex 0.246201938253052 0.04341204441673258 0.05
    vertex 0.246201938253052 0.04341204441673258 -0.05
  endloop
endfacet
facet normal 0.906308 0.422618 -0
  outer loop
    vertex 0.2165063509461097 0.125 -0.05
    vertex 0.2165063509461097 0.125 0.05
    vertex 0.2349231551964771 0.08550503583141718 0.05
  endloop
endfacet
facet normal 0.906308 0.422618 0
  outer loop
    vertex 0.2165063509461097 0.125 -0.05
    vertex 0.2349231551964771 0.08550503583141718 0.05
    vertex 0.2349231551964771 0.08550503583141718 -0.05
  endloop
endfacet
facet normal 0.819152 0.573576 -0
  outer loop
    vertex 0.1915111107797445 0.1606969024216348 -0.05
    vertex 0.1915111107797445 0.1606969024216348 0.05
    vertex 0.2165063509461097 0.125 0.05
  endloop
endfacet
facet normal 0.819152 0.573576 0
  outer loop
    vertex 0.1915111107797445 0.1606969024216348 -0.05
    vertex 0.2165063509461097 0.125 0.05
    vertex 0.2165063509461097 0.125 -0.05
  endloop
endfacet
facet normal 0.707107 0.707107 -0
  outer loop
    vertex 0.1606969024216348 0.1915111107797445 -0.05
    vertex 0.1606969024216348 0.1915111107797445 0.05
    vertex 0.1915111107797445 0.1606969024216348 0.05
  endloop
endfacet
facet normal 0.707107 0.707107 0
  outer loop
    vertex 0.1606969024216348 0.1915111107797445 -0.05
    vertex 0.1915111107797445 0.1606969024216348 0.05
    vertex 0.1915111107797445 0.1606969024216348 -0.05
  endloop
endfacet
facet normal 0.573576 0.819152 -0
  outer loop
    vertex 0.125 0.2165063509461096 -0.05
    vertex 0.125 0.2165063509461096 0.05
    vertex 0.1606969024216348 0.1915111107797445 0.05
  endloop
endfacet
facet normal 0.573576 0.819152 0
  outer loop
    vertex 0.125 0.2165063509461096 -0.05
    vertex 0.1606969024216348 0.1915111107797445 0.05
    vertex 0.1606969024216348 0.1915111107797445 -0.05
  endloop
endfacet
facet normal 0.422618 0.906308 0
  outer loop
    vertex 0.08550503583141721 0.2349231551964771 -0.05
    vertex 0.125 0.2165063509461096 0.05
    vertex 0.125 0.2165063509461096 -0.05
  endloop
endfacet
facet normal 0.422618 0.906308 -0
  outer loop
    vertex 0.08550503583141721 0.2349231551964771 -0.05
    vertex 0.08550503583141721 0.2349231551964771 0.05
    vertex 0.125 0.2165063509461096 0.05
  endloop
endfacet
facet normal 0.258819 0.965926 -0
  outer loop
    vertex 0.0434120444167326 0.246201938253052 -0.05
    vertex 0.0434120444167326 0.246201938253052 0.05
    vertex 0.08550503583141721 0.2349231551964771 0.05
  endloop
endfacet
facet normal 0.258819 0.965926 0
  outer loop
    vertex 0.0434120444167326 0.246201938253052 -0.05
    vertex 0.08550503583141721 0.2349231551964771 0.05
    vertex 0.08550503583141721 0.2349231551964771 -0.05
  endloop
endfacet
facet normal 0.0871557 0.996195 0
  outer loop
    vertex 1.530808498934192e-17 0.25 -0.05
    vertex 0.0434120444167326 0.246201938253052 0.05
    vertex 0.0434120444167326 0.246201938253052 -0.05
  endloop
endfacet
facet normal 0.0871557 0.996195 -0
  outer loop
    vertex 1.530808498934192e-17 0.25 -0.05
    vertex 1.530808498934192e-17 0.25 0.05
    vertex 0.0434120444167326 0.246201938253052 0.05
  endloop
endfacet
facet normal -0.0871557 0.996195 0
  outer loop
    vertex -0.04341204441673258 0.246201938253052 -0.05
    vertex -0.04341204441673258 0.246201938253052 0.05
    vertex 1.530808498934192e-17 0.25 0.05
  endloop
endfacet
facet normal -0.0871557 0.996195 0
  outer loop
    vertex -0.04341204441673258 0.246201938253052 -0.05
    vertex 1.530808498934192e-17 0.25 0.05
    vertex 1.530808498934192e-17 0.25 -0.05
  endloop
endfacet
facet normal -0.258819 0.965926 0
  outer loop
    vertex -0.08550503583141718 0.2349231551964771 -0.05
    vertex -0.08550503583141718 0.2349231551964771 0.05
    vertex -0.04341204441673258 0.246201938253052 0.05
  endloop
endfacet
facet normal -0.258819 0.965926 0
  outer loop
    vertex -0.08550503583141718 0.2349231551964771 -0.05
    vertex -0.04341204441673258 0.246201938253052 0.05
    vertex -0.04341204441673258 0.246201938253052 -0.05
  endloop
endfacet
facet normal -0.422618 0.906308 0
  outer loop
    vertex -0.1249999999999999 0.2165063509461097 -0.05
    vertex -0.1249999999999999 0.2165063509461097 0.05
    vertex -0.08550503583141718 0.2349231551964771 0.05
  endloop
endfacet
facet normal -0.422618 0.906308 0
  outer loop
    vertex -0.1249999999999999 0.2165063509461097 -0.05
    vertex -0.08550503583141718 0.2349231551964771 0.05
    vertex -0.08550503583141718 0.2349231551964771 -0.05
  endloop
endfacet
facet normal -0.573576 0.819152 0
  outer loop
    vertex -0.1606969024216348 0.1915111107797446 -0.05
    vertex -0.1606969024216348 0.1915111107797446 0.05
    vertex -0.1249999999999999 0.2165063509461097 0.05
  endloop
endfacet
facet normal -0.573576 0.819152 0
  outer loop
    vertex -0.1606969024216348 0.1915111107797446 -0.05
    vertex -0.1249999999999999 0.2165063509461097 0.05
    vertex -0.1249999999999999 0.2165063509461097 -0.05
  endloop
endfacet
facet normal -0.707107 0.707107 0
  outer loop
    vertex -0.1915111107797444 0.160696902421635 -0.05
    vertex -0.1915111107797444 0.160696902421635 0.05
    vertex -0.1606969024216348 0.1915111107797446 0.05
  endloop
endfacet
facet normal -0.707107 0.707107 0
  outer loop
    vertex -0.1915111107797444 0.160696902421635 -0.05
    vertex -0.1606969024216348 0.1915111107797446 0.05
    vertex -0.1606969024216348 0.1915111107797446 -0.05
  endloop
endfacet
facet normal -0.819152 0.573576 0
  outer loop
    vertex -0.2165063509461096 0.1250000000000002 -0.05
    vertex -0.2165063509461096 0.1250000000000002 0.05
    vertex -0.1915111107797444 0.160696902421635 0.05
  endloop
endfacet
facet normal -0.819152 0.573576 0
  outer loop
    vertex -0.2165063509461096 0.1250000000000002 -0.05
    vertex -0.1915111107797444 0.160696902421635 0.05
    vertex -0.1915111107797444 0.160696902421635 -0.05
  endloop
endfacet
facet normal -0.906308 0.422618 0
  outer loop
    vertex -0.234923155196477 0.08550503583141743 -0.05
    vertex -0.234923155196477 0.08550503583141743 0.05
    vertex -0.2165063509461096 0.1250000000000002 0.05
  endloop
endfacet
facet normal -0.906308 0.422618 0
  outer loop
    vertex -0.234923155196477 0.08550503583141743 -0.05
    vertex -0.2165063509461096 0.1250000000000002 0.05
    vertex -0.2165063509461096 0.1250000000000002 -0.05
  endloop
endfacet
facet normal -0.965926 0.258819 0
  outer loop
    vertex -0.2462019382530519 0.0434120444167329 -0.05
    vertex -0.2462019382530519 0.0434120444167329 0.05
    vertex -0.234923155196477 0.08550503583141743 0.05
  endloop
endfacet
facet normal -0.965926 0.258819 0
  outer loop
    vertex -0.2462019382530519 0.0434120444167329 -0.05
    vertex -0.234923155196477 0.08550503583141743 0.05
    vertex -0.234923155196477 0.08550503583141743 -0.05
  endloop
endfacet
facet normal -0.996195 0.0871557 0
  outer loop
    vertex -0.25 3.636830773662308e-16 -0.05
    vertex -0.25 3.636830773662308e-16 0.05
    vertex -0.2462019382530519 0.0434120444167329 0.05
  endloop
endfacet
facet normal -0.996195 0.0871557 0
  outer loop
    vertex -0.25 3.636830773662308e-16 -0.05
    vertex -0.2462019382530519 0.0434120444167329 0.05
    vertex -0.2462019382530519 0.0434120444167329 -0.05
  endloop
endfacet
facet normal -0.996195 -0.0871557 0
  outer loop
    vertex -0.2462019382530521 -0.04341204441673218 -0.05
    vertex -0.2462019382530521 -0.04341204441673218 0.05
    vertex -0.25 3.636830773662308e-16 0.05
  endloop
endfacet
facet normal -0.965926 -0.258819 0
  outer loop
    vertex -0.2462019382530521 -0.04341204441673218 -0.05
    vertex -0.2349231551964772 -0.08550503583141675 0.05
    vertex -0.2462019382530521 -0.04341204441673218 0.05
  endloop
endfacet
facet normal -0.996195 -0.0871557 0
  outer loop
    vertex -0.2462019382530521 -0.04341204441673218 -0.05
    vertex -0.25 3.636830773662308e-16 0.05
    vertex -0.25 3.636830773662308e-16 -0.05
  endloop
endfacet
facet normal -0.965926 -0.258819 0
  outer loop
    vertex -0.2349231551964772 -0.08550503583141675 -0.05
    vertex -0.2349231551964772 -0.08550503583141675 0.05
    vertex -0.2462019382530521 -0.04341204441673218 -0.05
  endloop
endfacet
facet normal -0.906308 -0.422618 0
  outer loop
    vertex -0.2165063509461099 -0.1249999999999996 -0.05
    vertex -0.2165063509461099 -0.1249999999999996 0.05
    vertex -0.2349231551964772 -0.08550503583141675 0.05
  endloop
endfacet
facet normal -0.906308 -0.422618 0
  outer loop
    vertex -0.2165063509461099 -0.1249999999999996 -0.05
    vertex -0.2349231551964772 -0.08550503583141675 0.05
    vertex -0.2349231551964772 -0.08550503583141675 -0.05
  endloop
endfacet
facet normal -0.819152 -0.573576 0
  outer loop
    vertex -0.1915111107797449 -0.1606969024216344 -0.05
    vertex -0.1915111107797449 -0.1606969024216344 0.05
    vertex -0.2165063509461099 -0.1249999999999996 0.05
  endloop
endfacet
facet normal -0.819152 -0.573576 0
  outer loop
    vertex -0.1915111107797449 -0.1606969024216344 -0.05
    vertex -0.2165063509461099 -0.1249999999999996 0.05
    vertex -0.2165063509461099 -0.1249999999999996 -0.05
  endloop
endfacet
facet normal -0.707107 -0.707107 0
  outer loop
    vertex -0.1606969024216352 -0.1915111107797442 -0.05
    vertex -0.1606969024216352 -0.1915111107797442 0.05
    vertex -0.1915111107797449 -0.1606969024216344 0.05
  endloop
endfacet
facet normal -0.573576 -0.819152 0
  outer loop
    vertex -0.1606969024216352 -0.1915111107797442 -0.05
    vertex -0.1250000000000005 -0.2165063509461094 0.05
    vertex -0.1606969024216352 -0.1915111107797442 0.05
  endloop
endfacet
facet normal -0.707107 -0.707107 0
  outer loop
    vertex -0.1606969024216352 -0.1915111107797442 -0.05
    vertex -0.1915111107797449 -0.1606969024216344 0.05
    vertex -0.1915111107797449 -0.1606969024216344 -0.05
  endloop
endfacet
facet normal -0.573576 -0.819152 0
  outer loop
    vertex -0.1250000000000005 -0.2165063509461094 -0.05
    vertex -0.1250000000000005 -0.2165063509461094 0.05
    vertex -0.1606969024216352 -0.1915111107797442 -0.05
  endloop
endfacet
facet normal -0.422618 -0.906308 0
  outer loop
    vertex -0.08550503583141776 -0.2349231551964769 -0.05
    vertex -0.08550503583141776 -0.2349231551964769 0.05
    vertex -0.1250000000000005 -0.2165063509461094 0.05
  endloop
endfacet
facet normal -0.258819 -0.965926 0
  outer loop
    vertex -0.08550503583141776 -0.2349231551964769 -0.05
    vertex -0.04341204441673324 -0.2462019382530519 0.05
    vertex -0.08550503583141776 -0.2349231551964769 0.05
  endloop
endfacet
facet normal -0.422618 -0.906308 0
  outer loop
    vertex -0.08550503583141776 -0.2349231551964769 -0.05
    vertex -0.1250000000000005 -0.2165063509461094 0.05
    vertex -0.1250000000000005 -0.2165063509461094 -0.05
  endloop
endfacet
facet normal -0.0871557 -0.996195 0
  outer loop
    vertex -0.04341204441673324 -0.2462019382530519 -0.05
    vertex -7.120580697431197e-16 -0.25 0.05
    vertex -0.04341204441673324 -0.2462019382530519 0.05
  endloop
endfacet
facet normal -0.258819 -0.965926 0
  outer loop
    vertex -0.04341204441673324 -0.2462019382530519 -0.05
    vertex -0.04341204441673324 -0.2462019382530519 0.05
    vertex -0.08550503583141776 -0.2349231551964769 -0.05
  endloop
endfacet
facet normal 0.0871557 -0.996195 0
  outer loop
    vertex -7.120580697431197e-16 -0.25 -0.05
    vertex 0.04341204441673183 -0.2462019382530521 0.05
    vertex -7.120580697431197e-16 -0.25 0.05
  endloop
endfacet
facet normal -0.0871557 -0.996195 0
  outer loop
    vertex -7.120580697431197e-16 -0.25 -0.05
    vertex -7.120580697431197e-16 -0.25 0.05
    vertex -0.04341204441673324 -0.2462019382530519 -0.05
  endloop
endfacet
facet normal 0.0871557 -0.996195 0
  outer loop
    vertex 0.04341204441673183 -0.2462019382530521 -0.05
    vertex 0.04341204441673183 -0.2462019382530521 0.05
    vertex -7.120580697431197e-16 -0.25 -0.05
  endloop
endfacet
facet normal 0.258819 -0.965926 0
  outer loop
    vertex 0.08550503583141641 -0.2349231551964774 -0.05
    vertex 0.08550503583141641 -0.2349231551964774 0.05
    vertex 0.04341204441673183 -0.2462019382530521 0.05
  endloop
endfacet
facet normal 0.258819 -0.965926 0
  outer loop
    vertex 0.08550503583141641 -0.2349231551964774 -0.05
    vertex 0.04341204441673183 -0.2462019382530521 0.05
    vertex 0.04341204441673183 -0.2462019382530521 -0.05
  endloop
endfacet
facet normal 0.422618 -0.906308 0
  outer loop
    vertex 0.1249999999999993 -0.2165063509461101 -0.05
    vertex 0.1249999999999993 -0.2165063509461101 0.05
    vertex 0.08550503583141641 -0.2349231551964774 0.05
  endloop
endfacet
facet normal 0.573576 -0.819152 0
  outer loop
    vertex 0.1249999999999993 -0.2165063509461101 -0.05
    vertex 0.1606969024216341 -0.1915111107797451 0.05
    vertex 0.1249999999999993 -0.2165063509461101 0.05
  endloop
endfacet
facet normal 0.422618 -0.906308 0
  outer loop
    vertex 0.1249999999999993 -0.2165063509461101 -0.05
    vertex 0.08550503583141641 -0.2349231551964774 0.05
    vertex 0.08550503583141641 -0.2349231551964774 -0.05
  endloop
endfacet
facet normal 0.573576 -0.819152 0
  outer loop
    vertex 0.1606969024216341 -0.1915111107797451 -0.05
    vertex 0.1606969024216341 -0.1915111107797451 0.05
    vertex 0.1249999999999993 -0.2165063509461101 -0.05
  endloop
endfacet
facet normal 0.707107 -0.707107 0
  outer loop
    vertex 0.1606969024216341 -0.1915111107797451 -0.05
    vertex 0.1915111107797439 -0.1606969024216356 0.05
    vertex 0.1606969024216341 -0.1915111107797451 0.05
  endloop
endfacet
facet normal 0.707107 -0.707107 0
  outer loop
    vertex 0.1915111107797439 -0.1606969024216356 -0.05
    vertex 0.1915111107797439 -0.1606969024216356 0.05
    vertex 0.1606969024216341 -0.1915111107797451 -0.05
  endloop
endfacet
facet normal 0.819152 -0.573576 0
  outer loop
    vertex 0.2165063509461091 -0.1250000000000009 -0.05
    vertex 0.1915111107797439 -0.1606969024216356 0.05
    vertex 0.1915111107797439 -0.1606969024216356 -0.05
  endloop
endfacet
facet normal 0.819152 -0.573576 0
  outer loop
    vertex 0.2165063509461091 -0.1250000000000009 -0.05
    vertex 0.2165063509461091 -0.1250000000000009 0.05
    vertex 0.1915111107797439 -0.1606969024216356 0.05
  endloop
endfacet
facet normal 0.906308 -0.422618 0
  outer loop
    vertex 0.2165063509461091 -0.1250000000000009 -0.05
    vertex 0.2349231551964767 -0.08550503583141819 0.05
    vertex 0.2165063509461091 -0.1250000000000009 0.05
  endloop
endfacet
facet normal 0.906308 -0.422618 0
  outer loop
    vertex 0.2349231551964767 -0.08550503583141819 -0.05
    vertex 0.2349231551964767 -0.08550503583141819 0.05
    vertex 0.2165063509461091 -0.1250000000000009 -0.05
  endloop
endfacet
facet normal 0.965926 -0.258819 0
  outer loop
    vertex 0.2462019382530518 -0.04341204441673369 -0.05
    vertex 0.2349231551964767 -0.08550503583141819 0.05
    vertex 0.2349231551964767 -0.08550503583141819 -0.05
  endloop
endfacet
facet normal 0.965926 -0.258819 0
  outer loop
    vertex 0.2462019382530518 -0.04341204441673369 -0.05
    vertex 0.2462019382530518 -0.04341204441673369 0.05
    vertex 0.2349231551964767 -0.08550503583141819 0.05
  endloop
endfacet
facet normal 0.996195 -0.0871557 0
  outer loop
    vertex 0.25 -6.123233995736766e-17 -0.05
    vertex 0.2462019382530518 -0.04341204441673369 0.05
    vertex 0.2462019382530518 -0.04341204441673369 -0.05
  endloop
endfacet
facet normal 0.996195 -0.0871557 0
  outer loop
    vertex 0.25 -6.123233995736766e-17 -0.05
    vertex 0.25 -6.123233995736766e-17 0.05
    vertex 0.2462019382530518 -0.04341204441673369 0.05
  endloop
endfacet
facet normal 0 0 1
  outer loop
    vertex 0.1915111107797439 -0.1606969024216356 0.05
    vertex 0.1249999999999992 -0.2165063509461101 0.05
    vertex 0.1606969024216341 -0.1915111107797451 0.05
  endloop
endfacet
facet normal 0 0 1
  outer loop
    vertex 0.25 -6.142273873338862e-17 0.05
    vertex 0.2349231551964767 -0.08550503583141819 0.05
    vertex 0.2462019382530518 -0.04341204441673369 0.05
  endloop
endfacet
facet normal 0 0 1
  outer loop
    vertex 0.125 0.2165063509461096 0.05
    vertex 0.08550503583141723 0.2349231551964771 0.05
    vertex 0.04341204441673259 0.246201938253052 0.05
  endloop
endfacet
facet normal 0 0 1
  outer loop
    vertex 0.1606969024216348 0.1915111107797445 0.05
    vertex 0.25 -6.142273873338862e-17 0.05
    vertex 0.246201938253052 0.0434120444167326 0.05
  endloop
endfacet
facet normal 0 0 1
  outer loop
    vertex 0.1606969024216348 0.1915111107797445 0.05
    vertex 0.246201938253052 0.0434120444167326 0.05
    vertex 0.2349231551964771 0.08550503583141719 0.05
  endloop
endfacet
facet normal 0 0 1
  outer loop
    vertex 0.1606969024216348 0.1915111107797445 0.05
    vertex 0.2349231551964771 0.08550503583141719 0.05
    vertex 0.2165063509461097 0.125 0.05
  endloop
endfacet
facet normal 0 0 1
  outer loop
    vertex 0.1606969024216348 0.1915111107797445 0.05
    vertex 0.2165063509461097 0.125 0.05
    vertex 0.1915111107797445 0.1606969024216348 0.05
  endloop
endfacet
facet normal 0 0 1
  outer loop
    vertex 0.1606969024216348 0.1915111107797445 0.05
    vertex 0.04341204441673259 0.246201938253052 0.05
    vertex 1.173088656243255e-17 0.25 0.05
  endloop
endfacet
facet normal 0 0 1
  outer loop
    vertex 0.1606969024216348 0.1915111107797445 0.05
    vertex 1.173088656243255e-17 0.25 0.05
    vertex -0.04341204441673256 0.246201938253052 0.05
  endloop
endfacet
facet normal 0 0 1
  outer loop
    vertex 0.1606969024216348 0.1915111107797445 0.05
    vertex -0.04341204441673256 0.246201938253052 0.05
    vertex -0.08550503583141718 0.2349231551964771 0.05
  endloop
endfacet
facet normal 0 0 1
  outer loop
    vertex 0.1606969024216348 0.1915111107797445 0.05
    vertex -0.08550503583141718 0.2349231551964771 0.05
    vertex -0.1249999999999999 0.2165063509461097 0.05
  endloop
endfacet
facet normal 0 0 1
  outer loop
    vertex 0.1606969024216348 0.1915111107797445 0.05
    vertex -0.1249999999999999 0.2165063509461097 0.05
    vertex -0.1606969024216348 0.1915111107797446 0.05
  endloop
endfacet
facet normal 0 0 1
  outer loop
    vertex 0.1606969024216348 0.1915111107797445 0.05
    vertex -0.1606969024216348 0.1915111107797446 0.05
    vertex -0.1915111107797444 0.160696902421635 0.05
  endloop
endfacet
facet normal 0 0 1
  outer loop
    vertex 0.1606969024216348 0.1915111107797445 0.05
    vertex -0.1915111107797444 0.160696902421635 0.05
    vertex -0.2165063509461096 0.1250000000000002 0.05
  endloop
endfacet
facet normal 0 0 1
  outer loop
    vertex 0.1606969024216348 0.1915111107797445 0.05
    vertex -0.2165063509461096 0.1250000000000002 0.05
    vertex -0.234923155196477 0.08550503583141741 0.05
  endloop
endfacet
facet normal 0 0 1
  outer loop
    vertex 0.1606969024216348 0.1915111107797445 0.05
    vertex -0.234923155196477 0.08550503583141741 0.05
    vertex -0.2462019382530519 0.04341204441673287 0.05
  endloop
endfacet
facet normal 0 0 1
  outer loop
    vertex 0.1606969024216348 0.1915111107797445 0.05
    vertex -0.2462019382530519 0.04341204441673287 0.05
    vertex -0.25 3.549108955010451e-16 0.05
  endloop
endfacet
facet normal 0 0 1
  outer loop
    vertex 0.1606969024216348 0.1915111107797445 0.05
    vertex -0.25 3.549108955010451e-16 0.05
    vertex -0.2462019382530521 -0.04341204441673217 0.05
  endloop
endfacet
facet normal 0 0 1
  outer loop
    vertex 0.1606969024216348 0.1915111107797445 0.05
    vertex -0.2462019382530521 -0.04341204441673217 0.05
    vertex -0.2349231551964772 -0.08550503583141675 0.05
  endloop
endfacet
facet normal 0 0 1
  outer loop
    vertex 0.1606969024216348 0.1915111107797445 0.05
    vertex -0.2349231551964772 -0.08550503583141675 0.05
    vertex -0.2165063509461099 -0.1249999999999996 0.05
  endloop
endfacet
facet normal 0 0 1
  outer loop
    vertex 0.1606969024216348 0.1915111107797445 0.05
    vertex -0.2165063509461099 -0.1249999999999996 0.05
    vertex -0.1915111107797449 -0.1606969024216344 0.05
  endloop
endfacet
facet normal 0 0 1
  outer loop
    vertex 0.1606969024216348 0.1915111107797445 0.05
    vertex -0.1915111107797449 -0.1606969024216344 0.05
    vertex -0.1606969024216352 -0.1915111107797442 0.05
  endloop
endfacet
facet normal 0 0 1
  outer loop
    vertex 0.1606969024216348 0.1915111107797445 0.05
    vertex -0.1606969024216352 -0.1915111107797442 0.05
    vertex -0.1250000000000005 -0.2165063509461094 0.05
  endloop
endfacet
facet normal 0 0 1
  outer loop
    vertex 0.1606969024216348 0.1915111107797445 0.05
    vertex -0.1250000000000005 -0.2165063509461094 0.05
    vertex -0.08550503583141776 -0.2349231551964769 0.05
  endloop
endfacet
facet normal 0 0 1
  outer loop
    vertex 0.1606969024216348 0.1915111107797445 0.05
    vertex -0.08550503583141776 -0.2349231551964769 0.05
    vertex -0.04341204441673323 -0.2462019382530519 0.05
  endloop
endfacet
facet normal 0 0 1
  outer loop
    vertex 0.1606969024216348 0.1915111107797445 0.05
    vertex -0.04341204441673323 -0.2462019382530519 0.05
    vertex -7.099140794439192e-16 -0.25 0.05
  endloop
endfacet
facet normal 0 0 1
  outer loop
    vertex 0.1606969024216348 0.1915111107797445 0.05
    vertex -7.099140794439192e-16 -0.25 0.05
    vertex 0.04341204441673181 -0.2462019382530521 0.05
  endloop
endfacet
facet normal 0 0 1
  outer loop
    vertex 0.1606969024216348 0.1915111107797445 0.05
    vertex 0.04341204441673181 -0.2462019382530521 0.05
    vertex 0.0855050358314164 -0.2349231551964774 0.05
  endloop
endfacet
facet normal 0 0 1
  outer loop
    vertex 0.1606969024216348 0.1915111107797445 0.05
    vertex 0.0855050358314164 -0.2349231551964774 0.05
    vertex 0.1249999999999992 -0.2165063509461101 0.05
  endloop
endfacet
facet normal 0 0 1
  outer loop
    vertex 0.1606969024216348 0.1915111107797445 0.05
    vertex 0.1915111107797439 -0.1606969024216356 0.05
    vertex 0.2165063509461091 -0.1250000000000009 0.05
  endloop
endfacet
facet normal 0 0 1
  outer loop
    vertex 0.1606969024216348 0.1915111107797445 0.05
    vertex 0.2165063509461091 -0.1250000000000009 0.05
    vertex 0.2349231551964767 -0.08550503583141819 0.05
  endloop
endfacet
facet normal 0 0 1
  outer loop
    vertex 0.1606969024216348 0.1915111107797445 0.05
    vertex 0.2349231551964767 -0.08550503583141819 0.05
    vertex 0.25 -6.142273873338862e-17 0.05
  endloop
endfacet
facet normal 0 0 1
  outer loop
    vertex 0.1606969024216348 0.1915111107797445 0.05
    vertex 0.1249999999999992 -0.2165063509461101 0.05
    vertex 0.1915111107797439 -0.1606969024216356 0.05
  endloop
endfacet
facet normal 0 0 1
  outer loop
    vertex 0.1606969024216348 0.1915111107797445 0.05
    vertex 0.125 0.2165063509461096 0.05
    vertex 0.04341204441673259 0.246201938253052 0.05
  endloop
endfacet
facet normal 0.996195 0.0871557 0
  outer loop
    vertex 0.246201938253052 0.04341204441673258 -0.05
    vertex 0.25 0 0.05
    vertex 0.25 0 -0.05
  endloop
endfacet
facet normal 0.996195 0.0871557 -0
  outer loop
    vertex 0.246201938253052 0.04341204441673258 -0.05
    vertex 0.246201938253052 0.04341204441673258 0.05
    vertex 0.25 0 0.05
  endloop
endfacet
facet normal 0.965926 0.258819 -0
  outer loop
    vertex 0.2349231551964771 0.08550503583141718 -0.05
    vertex 0.2349231551964771 0.08550503583141718 0.05
    vertex 0.246201938253052 0.04341204441673258 0.05
  endloop
endfacet
facet normal 0.965926 0.258819 0
  outer loop
    vertex 0.2349231551964771 0.08550503583141718 -0.05
    vertex 0.246201938253052 0.04341204441673258 0.05
    vertex 0.246201938253052 0.04341204441673258 -0.05
  endloop
endfacet
facet normal 0.906308 0.422618 -0
  outer loop
    vertex 0.2165063509461097 0.125 -0.05
    vertex 0.2165063509461097 0.125 0.05
    vertex 0.2349231551964771 0.08550503583141718 0.05
  endloop
endfacet
facet normal 0.906308 0.422618 0
  outer loop
    vertex 0.2165063509461097 0.125 -0.05
    vertex 0.2349231551964771 0.08550503583141718 0.05
    vertex 0.2349231551964771 0.08550503583141718 -0.05
  endloop
endfacet
facet normal 0.819152 0.573576 -0
  outer loop
    vertex 0.1915111107797445 0.1606969024216348 -0.05
    vertex 0.1915111107797445 0.1606969024216348 0.05
    vertex 0.2165063509461097 0.125 0.05
  endloop
endfacet
facet normal 0.819152 0.573576 0
  outer loop
    vertex 0.1915111107797445 0.1606969024216348 -0.05
    vertex 0.2165063509461097 0.125 0.05
    vertex 0.2165063509461097 0.125 -0.05
  endloop
endfacet
facet normal 0.707107 0.707107 -0
  outer loop
    vertex 0.1606969024216348 0.1915111107797445 -0.05
    vertex 0.1606969024216348 0.1915111107797445 0.05
    vertex 0.1915111107797445 0.1606969024216348 0.05
  endloop
endfacet
facet normal 0.707107 0.707107 0
  outer loop
    vertex 0.1606969024216348 0.1915111107797445 -0.05
    vertex 0.1915111107797445 0.1606969024216348 0.05
    vertex 0.1915111107797445 0.1606969024216348 -0.05
  endloop
endfacet
facet normal 0.573576 0.819152 -0
  outer loop
    vertex 0.125 0.2165063509461096 -0.05
    vertex 0.125 0.2165063509461096 0.05
    vertex 0.1606969024216348 0.1915111107797445 0.05
  endloop
endfacet
facet normal 0.573576 0.819152 0
  outer loop
    vertex 0.125 0.2165063509461096 -0.05
    vertex 0.1606969024216348 0.1915111107797445 0.05
    vertex 0.1606969024216348 0.1915111107797445 -0.05
  endloop
endfacet
facet normal 0.422618 0.906308 0
  outer loop
    vertex 0.08550503583141721 0.2349231551964771 -0.05
    vertex 0.125 0.2165063509461096 0.05
    vertex 0.125 0.2165063509461096 -0.05
  endloop
endfacet
facet normal 0.422618 0.906308 -0
  outer loop
    vertex 0.08550503583141721 0.2349231551964771 -0.05
    vertex 0.08550503583141721 0.2349231551964771 0.05
    vertex 0.125 0.2165063509461096 0.05
  endloop
endfacet
facet normal 0.258819 0.965926 -0
  outer loop
    vertex 0.0434120444167326 0.246201938253052 -0.05
    vertex 0.0434120444167326 0.246201938253052 0.05
    vertex 0.08550503583141721 0.2349231551964771 0.05
  endloop
endfacet
facet normal 0.258819 0.965926 0
  outer loop
    vertex 0.0434120444167326 0.246201938253052 -0.05
    vertex 0.08550503583141721 0.2349231551964771 0.05
    vertex 0.08550503583141721 0.2349231551964771 -0.05
  endloop
endfacet
facet normal 0.0871557 0.996195 0
  outer loop
    vertex 1.530808498934192e-17 0.25 -0.05
    vertex 0.0434120444167326 0.246201938253052 0.05
    vertex 0.0434120444167326 0.246201938253052 -0.05
  endloop
endfacet
facet normal 0.0871557 0.996195 -0
  outer loop
    vertex 1.530808498934192e-17 0.25 -0.05
    vertex 1.530808498934192e-17 0.25 0.05
    vertex 0.0434120444167326 0.246201938253052 0.05
  endloop
endfacet
facet normal -0.0871557 0.996195 0
  outer loop
    vertex -0.04341204441673258 0.246201938253052 -0.05
    vertex -0.04341204441673258 0.246201938253052 0.05
    vertex 1.530808498934192e-17 0.25 0.05
  endloop
endfacet
facet normal -0.0871557 0.996195 0
  outer loop
    vertex -0.04341204441673258 0.246201938253052 -0.05
    vertex 1.530808498934192e-17 0.25 0.05
    vertex 1.530808498934192e-17 0.25 -0.05
  endloop
endfacet
facet normal -0.258819 0.965926 0
  outer loop
    vertex -0.08550503583141718 0.2349231551964771 -0.05
    vertex -0.08550503583141718 0.2349231551964771 0.05
    vertex -0.04341204441673258 0.246201938253052 0.05
  endloop
endfacet
facet normal -0.258819 0.965926 0
  outer loop
    vertex -0.08550503583141718 0.2349231551964771 -0.05
    vertex -0.04341204441673258 0.246201938253052 0.05
    vertex -0.04341204441673258 0.246201938253052 -0.05
  endloop
endfacet
facet normal -0.422618 0.906308 0
  outer loop
    vertex -0.1249999999999999 0.2165063509461097 -0.05
    vertex -0.1249999999999999 0.2165063509461097 0.05
    vertex -0.08550503583141718 0.2349231551964771 0.05
  endloop
endfacet
facet normal -0.422618 0.906308 0
  outer loop
    vertex -0.1249999999999999 0.2165063509461097 -0.05
    vertex -0.08550503583141718 0.2349231551964771 0.05
    vertex -0.08550503583141718 0.2349231551964771 -0.05
  endloop
endfacet
facet normal -0.573576 0.819152 0
  outer loop
    vertex -0.1606969024216348 0.1915111107797446 -0.05
    vertex -0.1606969024216348 0.1915111107797446 0.05
    vertex -0.1249999999999999 0.2165063509461097 0.05
  endloop
endfacet
facet normal -0.573576 0.819152 0
  outer loop
    vertex -0.1606969024216348 0.1915111107797446 -0.05
    vertex -0.1249999999999999 0.2165063509461097 0.05
    vertex -0.1249999999999999 0.2165063509461097 -0.05
  endloop
endfacet
facet normal -0.707107 0.707107 0
  outer loop
    vertex -0.1915111107797444 0.160696902421635 -0.05
    vertex -0.1915111107797444 0.160696902421635 0.05
    vertex -0.1606969024216348 0.1915111107797446 0.05
  endloop
endfacet
facet normal -0.707107 0.707107 0
  outer loop
    vertex -0.1915111107797444 0.160696902421635 -0.05
    vertex -0.1606969024216348 0.1915111107797446 0.05
    vertex -0.1606969024216348 0.1915111107797446 -0.05
  endloop
endfacet
facet normal -0.819152 0.573576 0
  outer loop
    vertex -0.2165063509461096 0.1250000000000002 -0.05
    vertex -0.2165063509461096 0.1250000000000002 0.05
    vertex -0.1915111107797444 0.160696902421635 0.05
  endloop
endfacet
facet normal -0.819152 0.573576 0
  outer loop
    vertex -0.2165063509461096 0.1250000000000002 -0.05
    vertex -0.1915111107797444 0.160696902421635 0.05
    vertex -0.1915111107797444 0.160696902421635 -0.05
  endloop
endfacet
facet normal -0.906308 0.422618 0
  outer loop
    vertex -0.234923155196477 0.08550503583141743 -0.05
    vertex -0.234923155196477 0.08550503583141743 0.05
    vertex -0.2165063509461096 0.1250000000000002 0.05
  endloop
endfacet
facet normal -0.906308 0.422618 0
  outer loop
    vertex -0.234923155196477 0.08550503583141743 -0.05
    vertex -0.2165063509461096 0.1250000000000002 0.05
    vertex -0.2165063509461096 0.1250000000000002 -0.05
  endloop
endfacet
facet normal -0.965926 0.258819 0
  outer loop
    vertex -0.2462019382530519 0.0434120444167329 -0.05
    vertex -0.2462019382530519 0.0434120444167329 0.05
    vertex -0.234923155196477 0.08550503583141743 0.05
  endloop
endfacet
facet normal -0.965926 0.258819 0
  outer loop
    vertex -0.2462019382530519 0.0434120444167329 -0.05
    vertex -0.234923155196477 0.08550503583141743 0.05
    vertex -0.234923155196477 0.08550503583141743 -0.05
  endloop
endfacet
facet normal -0.996195 0.0871557 0
  outer loop
    vertex -0.25 3.636830773662308e-16 -0.05
    vertex -0.25 3.636830773662308e-16 0.05
    vertex -0.2462019382530519 0.0434120444167329 0.05
  endloop
endfacet
facet normal -0.996195 0.0871557 0
  outer loop
    vertex -0.25 3.636830773662308e-16 -0.05
    vertex -0.2462019382530519 0.0434120444167329 0.05
    vertex -0.2462019382530519 0.0434120444167329 -0.05
  endloop
endfacet
facet normal -0.996195 -0.0871557 0
  outer loop
    vertex -0.2462019382530521 -0.04341204441673218 -0.05
    vertex -0.2462019382530521 -0.04341204441673218 0.05
    vertex -0.25 3.636830773662308e-16 0.05
  endloop
endfacet
facet normal -0.965926 -0.258819 0
  outer loop
    vertex -0.2462019382530521 -0.04341204441673218 -0.05
    vertex -0.2349231551964772 -0.08550503583141675 0.05
    vertex -0.2462019382530521 -0.04341204441673218 0.05
  endloop
endfacet
facet normal -0.996195 -0.0871557 0
  outer loop
    vertex -0.2462019382530521 -0.04341204441673218 -0.05
    vertex -0.25 3.636830773662308e-16 0.05
    vertex -0.25 3.636830773662308e-16 -0.05
  endloop
endfacet
facet normal -0.965926 -0.258819 0
  outer loop
    vertex -0.2349231551964772 -0.08550503583141675 -0.05
    vertex -0.2349231551964772 -0.08550503583141675 0.05
    vertex -0.2462019382530521 -0.04341204441673218 -0.05
  endloop
endfacet
facet normal -0.906308 -0.422618 0
  outer loop
    vertex -0.2165063509461099 -0.1249999999999996 -0.05
    vertex -0.2165063509461099 -0.1249999999999996 0.05
    vertex -0.2349231551964772 -0.08550503583141675 0.05
  endloop
endfacet
facet normal -0.906308 -0.422618 0
  outer loop
    vertex -0.2165063509461099 -0.1249999999999996 -0.05
    vertex -0.2349231551964772 -0.08550503583141675 0.05
    vertex -0.2349231551964772 -0.08550503583141675 -0.05
  endloop
endfacet
facet normal -0.819152 -0.573576 0
  outer loop
    vertex -0.1915111107797449 -0.1606969024216344 -0.05
    vertex -0.1915111107797449 -0.1606969024216344 0.05
    vertex -0.2165063509461099 -0.1249999999999996 0.05
  endloop
endfacet
facet normal -0.819152 -0.573576 0
  outer loop
    vertex -0.1915111107797449 -0.1606969024216344 -0.05
    vertex -0.2165063509461099 -0.1249999999999996 0.05
    vertex -0.2165063509461099 -0.1249999999999996 -0.05
  endloop
endfacet
facet normal -0.707107 -0.707107 0
  outer loop
    vertex -0.1606969024216352 -0.1915111107797442 -0.05
    vertex -0.1606969024216352 -0.1915111107797442 0.05
    vertex -0.1915111107797449 -0.1606969024216344 0.05
  endloop
endfacet
facet normal -0.573576 -0.819152 0
  outer loop
    vertex -0.1606969024216352 -0.1915111107797442 -0.05
    vertex -0.1250000000000005 -0.2165063509461094 0.05
    vertex -0.1606969024216352 -0.1915111107797442 0.05
  endloop
endfacet
facet normal -0.707107 -0.707107 0
  outer loop
    vertex -0.1606969024216352 -0.1915111107797442 -0.05
    vertex -0.1915111107797449 -0.1606969024216344 0.05
    vertex -0.1915111107797449 -0.1606969024216344 -0.05
  endloop
endfacet
facet normal -0.573576 -0.819152 0
  outer loop
    vertex -0.1250000000000005 -0.2165063509461094 -0.05
    vertex -0.1250000000000005 -0.2165063509461094 0.05
    vertex -0.1606969024216352 -0.1915111107797442 -0.05
  endloop
endfacet
facet normal -0.422618 -0.906308 0
  outer loop
    vertex -0.08550503583141776 -0.2349231551964769 -0.05
    vertex -0.08550503583141776 -0.2349231551964769 0.05
    vertex -0.1250000000000005 -0.2165063509461094 0.05
  endloop
endfacet
facet normal -0.258819 -0.965926 0
  outer loop
    vertex -0.08550503583141776 -0.2349231551964769 -0.05
    vertex -0.04341204441673324 -0.2462019382530519 0.05
    vertex -0.08550503583141776 -0.2349231551964769 0.05
  endloop
endfacet
facet normal -0.422618 -0.906308 0
  outer loop
    vertex -0.08550503583141776 -0.2349231551964769 -0.05
    vertex -0.1250000000000005 -0.2165063509461094 0.05
    vertex -0.1250000000000005 -0.2165063509461094 -0.05
  endloop
endfacet
facet normal -0.0871557 -0.996195 0
  outer loop
    vertex -0.04341204441673324 -0.2462019382530519 -0.05
    vertex -7.120580697431197e-16 -0.25 0.05
    vertex -0.04341204441673324 -0.2462019382530519 0.05
  endloop
endfacet
facet normal -0.258819 -0.965926 0
  outer loop
    vertex -0.04341204441673324 -0.2462019382530519 -0.05
    vertex -0.04341204441673324 -0.2462019382530519 0.05
    vertex -0.08550503583141776 -0.2349231551964769 -0.05
  endloop
endfacet
facet normal 0.0871557 -0.996195 0
  outer loop
    vertex -7.120580697431197e-16 -0.25 -0.05
    vertex 0.04341204441673183 -0.2462019382530521 0.05
    vertex -7.120580697431197e-16 -0.25 0.05
  endloop
endfacet
facet normal -0.0871557 -0.996195 0
  outer loop
    vertex -7.120580697431197e-16 -0.25 -0.05
    vertex -7.120580697431197e-16 -0.25 0.05
    vertex -0.04341204441673324 -0.2462019382530519 -0.05
  endloop
endfacet
facet normal 0.0871557 -0.996195 0
  outer loop
    vertex 0.04341204441673183 -0.2462019382530521 -0.05
    vertex 0.04341204441673183 -0.2462019382530521 0.05
    vertex -7.120580697431197e-16 -0.25 -0.05
  endloop
endfacet
facet normal 0.258819 -0.965926 0
  outer loop
    vertex 0.08550503583141641 -0.2349231551964774 -0.05
    vertex 0.08550503583141641 -0.2349231551964774 0.05
    vertex 0.04341204441673183 -0.2462019382530521 0.05
  endloop
endfacet
facet normal 0.258819 -0.965926 0
  outer loop
    vertex 0.08550503583141641 -0.2349231551964774 -0.05
    vertex 0.04341204441673183 -0.2462019382530521 0.05
    vertex 0.04341204441673183 -0.2462019382530521 -0.05
  endloop
endfacet
facet normal 0.422618 -0.906308 0
  outer loop
    vertex 0.1249999999999993 -0.2165063509461101 -0.05
    vertex 0.1249999999999993 -0.2165063509461101 0.05
    vertex 0.08550503583141641 -0.2349231551964774 0.05
  endloop
endfacet
facet normal 0.573576 -0.819152 0
  outer loop
    vertex 0.1249999999999993 -0.2165063509461101 -0.05
    vertex 0.1606969024216341 -0.1915111107797451 0.05
    vertex 0.1249999999999993 -0.2165063509461101 0.05
  endloop
endfacet
facet normal 0.422618 -0.906308 0
  outer loop
    vertex 0.1249999999999993 -0.2165063509461101 -0.05
    vertex 0.08550503583141641 -0.2349231551964774 0.05
    vertex 0.08550503583141641 -0.2349231551964774 -0.05
  endloop
endfacet
facet normal 0.573576 -0.819152 0
  outer loop
    vertex 0.1606969024216341 -0.1915111107797451 -0.05
    vertex 0.1606969024216341 -0.1915111107797451 0.05
    vertex 0.1249999999999993 -0.2165063509461101 -0.05
  endloop
endfacet
facet normal 0.707107 -0.707107 0
  outer loop
    vertex 0.1606969024216341 -0.1915111107797451 -0.05
    vertex 0.1915111107797439 -0.1606969024216356 0.05
    vertex 0.1606969024216341 -0.1915111107797451 0.05
  endloop
endfacet
facet normal 0.707107 -0.707107 0
  outer loop
    vertex 0.1915111107797439 -0.1606969024216356 -0.05
    vertex 0.1915111107797439 -0.1606969024216356 0.05
    vertex 0.1606969024216341 -0.1915111107797451 -0.05
  endloop
endfacet
facet normal 0.819152 -0.573576 0
  outer loop
    vertex 0.2165063509461091 -0.1250000000000009 -0.05
    vertex 0.1915111107797439 -0.1606969024216356 0.05
    vertex 0.1915111107797439 -0.1606969024216356 -0.05
  endloop
endfacet
facet normal 0.819152 -0.573576 0
  outer loop
    vertex 0.2165063509461091 -0.1250000000000009 -0.05
    vertex 0.2165063509461091 -0.1250000000000009 0.05
    vertex 0.1915111107797439 -0.1606969024216356 0.05
  endloop
endfacet
facet normal 0.906308 -0.422618 0
  outer loop
    vertex 0.2165063509461091 -0.1250000000000009 -0.05
    vertex 0.2349231551964767 -0.08550503583141819 0.05
    vertex 0.2165063509461091 -0.1250000000000009 0.05
  endloop
endfacet
facet normal 0.906308 -0.422618 0
  outer loop
    vertex 0.2349231551964767 -0.08550503583141819 -0.05
    vertex 0.2349231551964767 -0.08550503583141819 0.05
    vertex 0.2165063509461091 -0.1250000000000009 -0.05
  endloop
endfacet
facet normal 0.965926 -0.258819 0
  outer loop
    vertex 0.2462019382530518 -0.04341204441673369 -0.05
    vertex 0.2349231551964767 -0.08550503583141819 0.05
    vertex 0.2349231551964767 -0.08550503583141819 -0.05
  endloop
endfacet
facet normal 0.965926 -0.258819 0
  outer loop
    vertex 0.2462019382530518 -0.04341204441673369 -0.05
    vertex 0.2462019382530518 -0.04341204441673369 0.05
    vertex 0.2349231551964767 -0.08550503583141819 0.05
  endloop
endfacet
facet normal 0.996195 -0.0871557 0
  outer loop
    vertex 0.25 -6.123233995736766e-17 -0.05
    vertex 0.2462019382530518 -0.04341204441673369 0.05
    vertex 0.2462019382530518 -0.04341204441673369 -0.05
  endloop
endfacet
facet normal 0.996195 -0.0871557 0
  outer loop
    vertex 0.25 -6.123233995736766e-17 -0.05
    vertex 0.25 -6.123233995736766e-17 0.05
    vertex 0.2462019382530518 -0.04341204441673369 0.05
  endloop
endfacet
endsolid Created by Gmsh
